<svg width="8" height="13" viewBox="0 0 8 13" fill="none" xmlns="http://www.w3.org/2000/svg">
<path d="M6.05222 0.0898438C6.21548 0.0898438 6.46425 0.154256 6.79853 0.282629C7.13281 0.411003 7.40491 0.596581 7.6148 0.840266C7.8247 1.0835 7.92991 1.26277 7.92991 1.37718C7.92991 1.49159 7.88327 1.58979 7.78998 1.67132L3.07891 6.21169L7.85995 10.4886C7.95323 10.5696 7.99988 10.6678 7.99988 10.7822C7.99988 10.8966 7.89467 11.0795 7.68477 11.3295C7.47487 11.5795 7.2033 11.7687 6.8685 11.8971C6.53421 12.0254 6.28544 12.0898 6.12219 12.0898C5.95893 12.0898 5.82315 12.0425 5.71379 11.948L0.326387 6.75896C0.108714 6.56978 -0.00012207 6.40087 -0.00012207 6.25222C-0.00012207 6.10358 0.0776186 5.9617 0.233099 5.82657L5.64383 0.211912C5.75266 0.130835 5.88897 0.0902948 6.05222 0.0902948V0.0898438Z" fill="#0A0B30"/>
</svg>
