<svg width="8" height="13" viewBox="0 0 8 13" fill="none" xmlns="http://www.w3.org/2000/svg">
<path d="M1.94753 0.0898438C1.78428 0.0898438 1.53551 0.154256 1.20123 0.282629C0.866942 0.411003 0.594851 0.596581 0.384952 0.840266C0.175053 1.0835 0.0698442 1.26277 0.0698442 1.37718C0.0698442 1.49159 0.116489 1.58979 0.209777 1.67132L4.92084 6.21169L0.13981 10.4886C0.046522 10.5696 -0.00012207 10.6678 -0.00012207 10.7822C-0.00012207 10.8966 0.105086 11.0795 0.314985 11.3295C0.524884 11.5795 0.796457 11.7687 1.13126 11.8971C1.46554 12.0254 1.71431 12.0898 1.87757 12.0898C2.04082 12.0898 2.17661 12.0425 2.28596 11.948L7.67337 6.75896C7.89104 6.56978 7.99988 6.40087 7.99988 6.25222C7.99988 6.10358 7.92214 5.9617 7.76666 5.82657L2.35593 0.211912C2.24709 0.130835 2.11079 0.0902948 1.94753 0.0902948V0.0898438Z" fill="#0A0B30"/>
</svg>
