<svg width="107" height="31" viewBox="0 0 107 31" fill="none" xmlns="http://www.w3.org/2000/svg">
<path d="M64.6667 5.68334C64.6261 5.63742 64.5801 5.59649 64.5298 5.5614L59.19 1.86414L60.5783 5.68334H64.6667Z" fill="white"/>
<path d="M48.8417 1.86517L43.5035 5.56141C43.4532 5.59649 43.4073 5.63742 43.3666 5.68334H47.455L48.8417 1.86517Z" fill="white"/>
<path d="M57.7914 1.04108C57.7749 1.04108 57.7594 1.03333 57.7424 1.03333H50.291C50.2734 1.03333 50.2574 1.04004 50.2393 1.04108L48.554 5.68332H59.4789L57.7914 1.04108Z" fill="white"/>
<path d="M66.9333 13.4333H60.2203L55.3967 19.0035C55.2252 19.2012 55.0132 19.3598 54.7751 19.4684C54.537 19.5771 54.2784 19.6333 54.0167 19.6333C53.7549 19.6333 53.4963 19.5771 53.2582 19.4684C53.0201 19.3598 52.8081 19.2012 52.6366 19.0035L47.813 13.4333H40.0667C39.7926 13.4333 39.5298 13.5422 39.336 13.736C39.1422 13.9298 39.0333 14.1926 39.0333 14.4667V16.5333H40.5833C40.9944 16.5333 41.3887 16.6967 41.6793 16.9873C41.97 17.278 42.1333 17.6723 42.1333 18.0834V25.3167C42.1333 25.7278 41.97 26.122 41.6793 26.4127C41.3887 26.7034 40.9944 26.8667 40.5833 26.8667H39.0333V28.9334C39.0333 29.2074 39.1422 29.4702 39.336 29.664C39.5298 29.8578 39.7926 29.9667 40.0667 29.9667H66.9333C67.2074 29.9667 67.4702 29.8578 67.664 29.664C67.8578 29.4702 67.9667 29.2074 67.9667 28.9334V14.4667C67.9667 14.1926 67.8578 13.9298 67.664 13.736C67.4702 13.5422 67.2074 13.4333 66.9333 13.4333ZM41.1 15.5H40.5833C40.4463 15.5 40.3149 15.4456 40.218 15.3487C40.1211 15.2518 40.0667 15.1204 40.0667 14.9833C40.0667 14.8463 40.1211 14.7149 40.218 14.618C40.3149 14.5211 40.4463 14.4667 40.5833 14.4667H41.1C41.237 14.4667 41.3684 14.5211 41.4653 14.618C41.5622 14.7149 41.6167 14.8463 41.6167 14.9833C41.6167 15.1204 41.5622 15.2518 41.4653 15.3487C41.3684 15.4456 41.237 15.5 41.1 15.5ZM41.1 28.9334H40.5833C40.4463 28.9334 40.3149 28.8789 40.218 28.782C40.1211 28.6851 40.0667 28.5537 40.0667 28.4167C40.0667 28.2797 40.1211 28.1482 40.218 28.0513C40.3149 27.9545 40.4463 27.9 40.5833 27.9H41.1C41.237 27.9 41.3684 27.9545 41.4653 28.0513C41.5622 28.1482 41.6167 28.2797 41.6167 28.4167C41.6167 28.5537 41.5622 28.6851 41.4653 28.782C41.3684 28.8789 41.237 28.9334 41.1 28.9334ZM49.8833 23.0232C49.883 23.2397 49.8255 23.4523 49.7166 23.6395C49.6077 23.8266 49.4514 23.9817 49.2633 24.0891L47.4033 25.1534C47.2154 25.2596 47.0033 25.3154 46.7875 25.3154C46.5716 25.3154 46.3595 25.2596 46.1716 25.1534L44.3033 24.0886C44.1153 23.9813 43.959 23.8263 43.8501 23.6392C43.7413 23.4521 43.6837 23.2396 43.6833 23.0232V20.8935C43.6837 20.677 43.7412 20.4644 43.8501 20.2772C43.9589 20.0901 44.1153 19.935 44.3033 19.8276L46.1633 18.7633C46.3511 18.6569 46.5633 18.6009 46.7792 18.6009C46.9951 18.6009 47.2072 18.6569 47.3951 18.7633L49.2633 19.8281C49.4513 19.9354 49.6077 20.0904 49.7165 20.2775C49.8254 20.4646 49.8829 20.6771 49.8833 20.8935V23.0232ZM57.1167 26.6399C57.1163 26.8564 57.0588 27.069 56.9499 27.2561C56.8411 27.4433 56.6847 27.5984 56.4967 27.7058L54.6367 28.7701C54.4488 28.8763 54.2366 28.932 54.0208 28.932C53.805 28.932 53.5928 28.8763 53.4049 28.7701L51.5367 27.7052C51.3487 27.598 51.1923 27.443 51.0835 27.2559C50.9746 27.0688 50.9171 26.8563 50.9167 26.6399V24.5102C50.917 24.2936 50.9745 24.0811 51.0834 23.8939C51.1923 23.7067 51.3486 23.5516 51.5367 23.4443L53.3967 22.38C53.5845 22.2735 53.7967 22.2176 54.0125 22.2176C54.2284 22.2176 54.4406 22.2735 54.6284 22.38L56.4967 23.4448C56.6847 23.5521 56.841 23.7071 56.9499 23.8941C57.0587 24.0812 57.1163 24.2937 57.1167 24.5102V26.6399ZM64.35 23.0232C64.3496 23.2397 64.2921 23.4523 64.1833 23.6395C64.0744 23.8266 63.918 23.9817 63.73 24.0891L61.87 25.1534C61.6821 25.2596 61.4699 25.3154 61.2541 25.3154C61.0383 25.3154 60.8262 25.2596 60.6383 25.1534L58.77 24.0886C58.582 23.9813 58.4257 23.8263 58.3168 23.6392C58.2079 23.4521 58.1504 23.2396 58.15 23.0232V20.8935C58.1503 20.677 58.2079 20.4644 58.3167 20.2772C58.4256 20.0901 58.582 19.935 58.77 19.8276L60.63 18.7633C60.8178 18.6569 61.03 18.6009 61.2459 18.6009C61.4617 18.6009 61.6739 18.6569 61.8617 18.7633L63.73 19.8281C63.918 19.9354 64.0743 20.0904 64.1832 20.2775C64.2921 20.4646 64.3496 20.6771 64.35 20.8935V23.0232ZM66.9333 25.3167C66.9333 25.4537 66.8789 25.5851 66.782 25.682C66.6851 25.7789 66.5537 25.8334 66.4167 25.8334C66.2796 25.8334 66.1482 25.7789 66.0513 25.682C65.9544 25.5851 65.9 25.4537 65.9 25.3167V18.0834C65.9 17.9463 65.9544 17.8149 66.0513 17.718C66.1482 17.6211 66.2796 17.5667 66.4167 17.5667C66.5537 17.5667 66.6851 17.6211 66.782 17.718C66.8789 17.8149 66.9333 17.9463 66.9333 18.0834V25.3167Z" fill="white"/>
<path d="M63.218 20.7256L61.3533 19.6607C61.3218 19.643 61.2862 19.6335 61.25 19.6334C61.2137 19.634 61.1782 19.6437 61.1467 19.6618L59.2867 20.7256C59.2565 20.7422 59.2313 20.7665 59.2138 20.7962C59.1962 20.8258 59.187 20.8596 59.187 20.894V23.0237C59.187 23.058 59.1961 23.0916 59.2134 23.1211C59.2308 23.1506 59.2557 23.175 59.2856 23.1916L61.1467 24.256C61.1781 24.2741 61.2137 24.2837 61.25 24.2837C61.2863 24.2837 61.3219 24.2741 61.3533 24.256L63.2133 23.1922C63.2443 23.176 63.2702 23.1518 63.2884 23.122C63.3066 23.0923 63.3164 23.0581 63.3167 23.0232V20.8935C63.3167 20.8593 63.3075 20.8256 63.2902 20.7961C63.2728 20.7666 63.2479 20.7423 63.218 20.7256ZM61.7667 22.7334C61.7667 22.8704 61.7122 23.0018 61.6153 23.0987C61.5184 23.1956 61.387 23.25 61.25 23.25C61.113 23.25 60.9816 23.1956 60.8847 23.0987C60.7878 23.0018 60.7333 22.8704 60.7333 22.7334V22.2167C60.6312 22.2167 60.5313 22.1864 60.4463 22.1296C60.3614 22.0728 60.2952 21.9921 60.2561 21.8977C60.217 21.8033 60.2068 21.6995 60.2267 21.5993C60.2466 21.4991 60.2958 21.407 60.3681 21.3347L60.8847 20.8181C60.957 20.7458 61.049 20.6967 61.1492 20.6767C61.2494 20.6568 61.3533 20.667 61.4477 20.7061C61.5421 20.7452 61.6228 20.8114 61.6796 20.8964C61.7363 20.9813 61.7666 21.0812 61.7667 21.1834V22.7334Z" fill="#FF9901"/>
<path d="M55.9846 24.3422L54.12 23.2774C54.0885 23.2596 54.0529 23.2502 54.0167 23.25C53.9804 23.2506 53.9448 23.2604 53.9133 23.2784L52.0533 24.3422C52.0231 24.3588 51.998 24.3832 51.9804 24.4128C51.9629 24.4424 51.9536 24.4762 51.9536 24.5107V26.6404C51.9536 26.6746 51.9628 26.7082 51.9801 26.7378C51.9975 26.7673 52.0224 26.7916 52.0523 26.8083L53.9133 27.8726C53.9447 27.8908 53.9804 27.9003 54.0167 27.9003C54.0529 27.9003 54.0886 27.8908 54.12 27.8726L55.98 26.8088C56.0109 26.7927 56.0369 26.7684 56.0551 26.7387C56.0733 26.7089 56.0831 26.6747 56.0833 26.6399V24.5101C56.0833 24.4759 56.0742 24.4423 56.0568 24.4128C56.0395 24.3832 56.0146 24.3589 55.9846 24.3422ZM54.5333 26.35C54.5333 26.487 54.4789 26.6184 54.382 26.7153C54.2851 26.8122 54.1537 26.8667 54.0167 26.8667C53.8796 26.8667 53.7482 26.8122 53.6513 26.7153C53.5544 26.6184 53.5 26.487 53.5 26.35V25.8333C53.3978 25.8333 53.298 25.803 53.213 25.7462C53.1281 25.6895 53.0619 25.6088 53.0228 25.5144C52.9837 25.42 52.9734 25.3161 52.9934 25.2159C53.0133 25.1157 53.0625 25.0236 53.1347 24.9514L53.6514 24.4347C53.7236 24.3625 53.8157 24.3133 53.9159 24.2934C54.0161 24.2734 54.12 24.2837 54.2144 24.3228C54.3088 24.3619 54.3894 24.4281 54.4462 24.513C54.503 24.598 54.5333 24.6978 54.5333 24.8V26.35Z" fill="#FF9901"/>
<path d="M47.4917 6.71667H43.364L52.6258 17.4132L47.4917 6.71667Z" fill="white"/>
<path d="M60.5416 6.71667L55.4075 17.4132L64.6698 6.71667H60.5416Z" fill="white"/>
<path d="M59.3952 6.71667H48.6376L54.0167 17.9227L59.3952 6.71667Z" fill="#FF9901"/>
<path d="M41.1 25.3167V18.0833C41.1 17.9463 41.0456 17.8149 40.9487 17.718C40.8518 17.6211 40.7204 17.5667 40.5833 17.5667H39.0333V25.8333H40.5833C40.7204 25.8333 40.8518 25.7789 40.9487 25.682C41.0456 25.5851 41.1 25.4537 41.1 25.3167Z" fill="white"/>
<path d="M48.7513 20.7256L46.8867 19.6607C46.8551 19.643 46.8195 19.6335 46.7833 19.6334C46.747 19.634 46.7115 19.6437 46.68 19.6618L44.82 20.7256C44.7898 20.7422 44.7646 20.7665 44.7471 20.7962C44.7295 20.8258 44.7203 20.8596 44.7203 20.894V23.0237C44.7203 23.058 44.7294 23.0916 44.7468 23.1211C44.7641 23.1506 44.789 23.175 44.819 23.1916L46.68 24.256C46.7114 24.2741 46.747 24.2837 46.7833 24.2837C46.8196 24.2837 46.8552 24.2741 46.8867 24.256L48.7467 23.1922C48.7776 23.176 48.8036 23.1518 48.8218 23.122C48.84 23.0923 48.8497 23.0581 48.85 23.0232V20.8935C48.85 20.8593 48.8408 20.8256 48.8235 20.7961C48.8061 20.7666 48.7812 20.7423 48.7513 20.7256ZM47.3 22.7334C47.3 22.8704 47.2456 23.0018 47.1487 23.0987C47.0518 23.1956 46.9204 23.25 46.7833 23.25C46.6463 23.25 46.5149 23.1956 46.418 23.0987C46.3211 23.0018 46.2667 22.8704 46.2667 22.7334V22.2167C46.1645 22.2167 46.0646 22.1864 45.9797 22.1296C45.8947 22.0728 45.8285 21.9921 45.7894 21.8977C45.7503 21.8033 45.7401 21.6995 45.76 21.5993C45.78 21.4991 45.8291 21.407 45.9014 21.3347L46.418 20.8181C46.4903 20.7458 46.5824 20.6967 46.6826 20.6767C46.7828 20.6568 46.8866 20.667 46.981 20.7061C47.0754 20.7452 47.1561 20.8114 47.2129 20.8964C47.2697 20.9813 47.3 21.0812 47.3 21.1834V22.7334Z" fill="#FF9901"/>
</svg>
