<svg width="107" height="31" viewBox="0 0 107 31" fill="none" xmlns="http://www.w3.org/2000/svg">
<g clip-path="url(#clip0_52_2047)">
<g clip-path="url(#clip1_52_2047)">
<path d="M54.071 27.5034V19.2571H51.3624C51.2144 20.8495 49.8337 22.1826 48.158 22.1826C46.4823 22.1826 45.1016 20.8495 44.9535 19.2571H42.9054C40.4929 19.2529 38.5338 21.2051 38.5296 23.6175V23.6219V27.7285H54.0878C54.0749 27.6542 54.0693 27.5788 54.071 27.5034Z" fill="white"/>
<path d="M58.9926 24.3527H59.07L59.0313 24.219L58.9926 24.3527Z" fill="white"/>
<path d="M45.727 17.0643V18.9492C45.727 20.3035 46.8249 21.4014 48.1793 21.4014C49.5336 21.4014 50.6315 20.3035 50.6315 18.9492V17.0519C49.872 17.3905 49.051 17.5696 48.2195 17.5781C48.2042 17.5781 48.1841 17.5781 48.1685 17.5781C47.3277 17.5796 46.496 17.4045 45.727 17.0643Z" fill="white"/>
<path d="M51.3958 16.754C51.6506 16.508 51.9957 16.2331 52.313 15.925C52.0287 16.1894 51.7218 16.4284 51.3958 16.6393V16.754Z" fill="white"/>
<path d="M53.4341 9.10028L53.4592 8.54474C53.4769 7.3311 52.9202 6.21785 51.9415 5.56702C51.6292 5.35562 51.2812 5.20256 50.9143 5.1153C48.2621 9.72557 43.8162 10.5857 42.8608 10.7236V11.5065C42.8523 14.4292 45.2149 16.8055 48.1377 16.8139H48.15H48.1825C51.0869 16.7926 53.4341 14.3797 53.4341 11.4353V9.10028Z" fill="white"/>
<path d="M44.243 16.1454C44.1196 16.0407 44.002 15.931 43.8859 15.8158C42.7349 14.678 42.09 13.125 42.0965 11.5065V10.5074C42.0942 10.2254 42.3177 9.99329 42.5996 9.98507C42.9007 9.95686 47.6809 9.43246 50.3719 4.50734C50.4471 4.36811 50.6009 4.29027 50.7576 4.31199C51.3299 4.39441 51.8759 4.60607 52.3541 4.93091C53.5501 5.72633 54.2434 7.08156 54.2219 8.55628L54.1984 9.1059V11.4351C54.2052 13.0411 53.5832 14.586 52.4655 15.7393C52.4736 15.7313 52.4974 15.7238 52.5052 15.7157C53.8354 14.387 54.8092 12.999 55.3993 11.5902C56.1896 9.70367 56.2289 7.68373 55.51 5.90232C55.1024 4.89295 54.2591 3.91142 53.112 4.18346C52.9194 4.22913 52.7239 4.12021 52.6613 3.93244L52.6263 3.82753C52.0958 2.58364 51.2213 1.6237 50.0967 1.0516C48.9205 0.452868 47.5325 0.337326 46.1884 0.725672C43.9456 1.37383 42.0993 2.86976 41.1222 4.82983C40.5463 5.9999 40.2749 7.2964 40.3333 8.59927C40.4577 11.6097 41.9523 14.4301 44.243 16.1454Z" fill="white"/>
<path d="M59.0324 20.0246C57.5496 20.7112 57.0381 21.8753 57.1931 22.7404C57.2892 23.252 57.5963 23.5696 57.9947 23.5696C58.2328 23.5696 58.5173 23.4496 58.7959 23.2316C58.9358 23.1221 59.1326 23.1234 59.271 23.2347C59.5531 23.4618 59.8307 23.5817 60.0736 23.5817C60.4733 23.5817 60.7782 23.2605 60.8691 22.7432C61.0251 21.8669 60.5146 20.6977 59.0324 20.0246Z" fill="white"/>
<path d="M67.8411 18.5454L66.8344 18.2524C66.8339 18.347 66.8253 18.4414 66.8085 18.5345L64.904 29.0314C64.796 29.6252 64.3704 30.1115 63.7963 30.2973L64.3736 30.4653C64.8365 30.5992 65.3204 30.3335 65.4556 29.871L68.4358 19.6271C68.5696 19.1642 68.3036 18.6804 67.8411 18.5454Z" fill="#FF9901"/>
<path d="M63.243 27.4925V16.818C63.2431 16.336 62.8524 15.9452 62.3704 15.945H55.7083C55.2262 15.945 54.8354 16.3359 54.8354 16.818V27.4925C54.8353 27.9746 55.2261 28.3654 55.7082 28.3655H55.7083H62.3704C62.8525 28.3653 63.2431 27.9745 63.243 27.4925ZM55.8545 17.4737C55.8545 17.6848 55.6834 17.8559 55.4723 17.8559C55.2612 17.8559 55.0901 17.6848 55.0901 17.4737V16.7731C55.0901 16.562 55.2612 16.3909 55.4723 16.3909C55.6834 16.3909 55.8545 16.562 55.8545 16.7731V17.4737ZM61.6219 22.8769C61.4649 23.7694 60.8572 24.3471 60.0737 24.3471C60.0036 24.347 59.9335 24.3422 59.864 24.3328L59.9456 24.6167C60.0047 24.8259 59.8828 25.0434 59.6736 25.1025C59.6426 25.1112 59.6107 25.1161 59.5786 25.1171H58.4841C58.3628 25.1141 58.2497 25.0548 58.1784 24.9565C58.106 24.8575 58.0833 24.7306 58.1168 24.6126L58.2019 24.3185C58.1331 24.3283 58.0638 24.3334 57.9945 24.3339C57.2162 24.3339 56.6066 23.763 56.4413 22.8796L56.4408 22.877C56.2285 21.6977 56.8825 20.1286 58.8217 19.281C58.8299 19.2775 58.8381 19.2743 58.8465 19.2713C58.9654 19.2258 59.097 19.2258 59.2159 19.2713C59.2233 19.274 59.2307 19.2768 59.2379 19.2799C61.1793 20.1107 61.8339 21.6853 61.6219 22.8769ZM61.9691 27.6648V26.8368C61.9691 26.6257 62.1402 26.4546 62.3513 26.4546C62.5624 26.4546 62.7335 26.6257 62.7335 26.8368V27.6648C62.7335 27.8759 62.5624 28.047 62.3513 28.047C62.1402 28.047 61.9691 27.8759 61.9691 27.6648Z" fill="#FF9901"/>
<path d="M64.1532 28.8953L66.0595 18.3984C66.1464 17.9249 65.8331 17.4707 65.3597 17.3836L64.0074 17.1369V27.5034C63.9995 28.4075 63.2618 29.1348 62.3577 29.1298H60.6145L63.1372 29.5929C63.6065 29.6835 64.0604 29.3766 64.151 28.9073C64.1518 28.9033 64.1525 28.8993 64.1532 28.8953Z" fill="#FF9901"/>
</g>
</g>
<defs>
<clipPath id="clip0_52_2047">
<rect width="106" height="30" fill="white" transform="translate(0.5 0.5)"/>
</clipPath>
<clipPath id="clip1_52_2047">
<rect width="30" height="30" fill="white" transform="translate(38.5 0.5)"/>
</clipPath>
</defs>
</svg>
