<svg width="107" height="41" viewBox="0 0 107 41" fill="none" xmlns="http://www.w3.org/2000/svg">
<path d="M48.375 12.3854C48.375 14.034 47.034 15.375 45.3854 15.375C43.7369 15.375 42.3958 14.034 42.3958 12.3854C42.3958 10.7369 43.7369 9.39583 45.3854 9.39583C47.034 9.39583 48.375 10.7369 48.375 12.3854ZM52.6458 22.2083V35.0208C52.6458 35.4923 52.264 35.875 51.7917 35.875H38.9792C38.5068 35.875 38.125 35.4923 38.125 35.0208V22.2083C38.125 21.7368 38.5068 21.3542 38.9792 21.3542H51.7917C52.264 21.3542 52.6458 21.7368 52.6458 22.2083ZM46.5932 28.6146L48.9789 26.2289C49.3129 25.8949 49.3129 25.3551 48.9789 25.0211C48.6449 24.6871 48.1051 24.6871 47.7711 25.0211L45.3854 27.4068L42.9997 25.0211C42.6658 24.6871 42.1259 24.6871 41.7919 25.0211C41.458 25.3551 41.458 25.8949 41.7919 26.2289L44.1776 28.6146L41.7919 31.0003C41.458 31.3342 41.458 31.8741 41.7919 32.2081C42.1259 32.542 42.6658 32.542 42.9997 32.2081L45.3854 29.8224L47.7711 32.2081C48.1051 32.542 48.6449 32.542 48.9789 32.2081C49.3129 31.8741 49.3129 31.3342 48.9789 31.0003L46.5932 28.6146ZM52.6458 5.97917V18.7917C52.6458 19.2632 52.264 19.6458 51.7917 19.6458H38.9792C38.5068 19.6458 38.125 19.2632 38.125 18.7917V5.97917C38.125 5.50767 38.5068 5.125 38.9792 5.125H51.7917C52.264 5.125 52.6458 5.50767 52.6458 5.97917ZM50.0833 12.3854C50.0833 9.79473 47.9753 7.6875 45.3854 7.6875C42.7956 7.6875 40.6875 9.79473 40.6875 12.3854C40.6875 14.9761 42.7956 17.0833 45.3854 17.0833C47.9753 17.0833 50.0833 14.9761 50.0833 12.3854ZM59.3357 30.75H63.8935L61.6146 27.2044L59.3357 30.75ZM68.875 22.2083V35.0208C68.875 35.4923 68.4932 35.875 68.0208 35.875H55.2083C54.736 35.875 54.3542 35.4923 54.3542 35.0208V22.2083C54.3542 21.7368 54.736 21.3542 55.2083 21.3542H68.0208C68.4932 21.3542 68.875 21.7368 68.875 22.2083ZM66.1767 31.1421L62.3329 25.1629C62.0195 24.6735 61.2106 24.6735 60.8962 25.1629L57.0525 31.1421C56.8834 31.4051 56.8714 31.7391 57.0209 32.0133C57.1712 32.2875 57.4582 32.4583 57.7708 32.4583H65.4583C65.771 32.4583 66.058 32.2875 66.2083 32.0133C66.3578 31.7391 66.3458 31.4051 66.1767 31.1421ZM68.875 5.97917V18.7917C68.875 19.2632 68.4932 19.6458 68.0208 19.6458H55.2083C54.736 19.6458 54.3542 19.2632 54.3542 18.7917V5.97917C54.3542 5.50767 54.736 5.125 55.2083 5.125H68.0208C68.4932 5.125 68.875 5.50767 68.875 5.97917ZM66.0622 11.7815L62.2185 7.93777C61.8845 7.60379 61.3447 7.60379 61.0107 7.93777L57.1669 11.7815C56.833 12.1155 56.833 12.6553 57.1669 12.9893L61.0107 16.8331C61.3447 17.167 61.8845 17.167 62.2185 16.8331L66.0622 12.9893C66.3962 12.6553 66.3962 12.1155 66.0622 11.7815ZM58.9786 12.3854L61.6146 15.0214L64.2505 12.3854L61.6146 9.74946L58.9786 12.3854Z" fill="white"/>
<path d="M59 12.5L61.5 10L64 12.5L61.5 15L59 12.5Z" fill="#FF9901"/>
<circle cx="45" cy="13" r="3" fill="#FF9901"/>
</svg>
