<svg width="107" height="35" viewBox="0 0 107 35" fill="none" xmlns="http://www.w3.org/2000/svg">
<path d="M62.25 17.5C57.4375 17.5 53.5 21.4375 53.5 26.25C53.5 31.0625 57.4375 35 62.25 35C67.0625 35 71 31.0625 71 26.25C71 21.4375 67.0625 17.5 62.25 17.5ZM65.5312 27.3438H63.3438V29.5312C63.3438 30.1875 62.9062 30.625 62.25 30.625C61.5938 30.625 61.1562 30.1875 61.1562 29.5312V27.3438H58.9688C58.3125 27.3438 57.875 26.9062 57.875 26.25C57.875 25.5938 58.3125 25.1562 58.9688 25.1562H61.1562V22.9688C61.1562 22.3125 61.5938 21.875 62.25 21.875C62.9062 21.875 63.3438 22.3125 63.3438 22.9688V25.1562H65.5312C66.1875 25.1562 66.625 25.5938 66.625 26.25C66.625 26.9062 66.1875 27.3438 65.5312 27.3438Z" fill="#FF9901"/>
<path d="M62.25 15.3125H63.0156C63.5625 13.5625 63.3438 11.8125 62.4688 10.1719C61.4844 8.42189 59.8438 7.10939 57.9844 6.67189C56.3438 6.34376 54.8125 6.56251 53.2813 7.32814C51.8594 8.09376 49.5625 8.09376 48.0313 7.32814C46.6094 6.56251 45.0781 6.34376 43.4375 6.67189C41.5781 7.10939 39.8281 8.42189 38.9531 10.1719C38.0781 11.8125 37.8594 13.5625 38.4063 15.4219L36.2188 22.6406C35.8906 23.7344 36.1094 24.9375 36.7656 25.8125C37.4219 26.7969 38.5156 27.3438 39.7188 27.3438C40.9219 27.3438 41.9063 26.7969 42.6719 25.9219L46.3906 20.7813H52.7344C54.7031 17.5 58.2031 15.3125 62.25 15.3125ZM55.7969 10.5C55.7969 10.3906 55.9063 10.2813 56.0156 10.1719C56.4531 9.73439 57.1094 9.73439 57.5469 10.1719C57.6563 10.2813 57.7656 10.3906 57.7656 10.5C57.875 10.6094 57.875 10.8281 57.875 10.9375C57.875 11.0469 57.875 11.2656 57.7656 11.375C57.6563 11.4844 57.6563 11.5938 57.5469 11.7031C57.3281 11.9219 57.1094 12.0313 56.7813 12.0313C56.4531 12.0313 56.2344 11.9219 56.0156 11.7031C55.9063 11.5938 55.7969 11.4844 55.7969 11.375C55.7969 11.2656 55.6875 11.0469 55.6875 10.9375C55.6875 10.8281 55.6875 10.6094 55.7969 10.5ZM53.5 12.9063C53.5 12.7969 53.5 12.7969 53.6094 12.6875C53.6094 12.5781 53.6094 12.5781 53.7188 12.4688C53.7188 12.3594 53.8281 12.3594 53.8281 12.3594L53.9375 12.25C54.0469 12.25 54.0469 12.1406 54.1563 12.1406C54.2656 12.1406 54.2656 12.1406 54.375 12.0313C54.7031 11.9219 55.1406 12.0313 55.3594 12.3594L55.4688 12.4688C55.4688 12.5781 55.5781 12.5781 55.5781 12.6875C55.5781 12.7969 55.5781 12.7969 55.6875 12.9063V13.125C55.6875 13.125 55.6875 13.2344 55.6875 13.3438C55.6875 13.4531 55.6875 13.4531 55.5781 13.5625C55.5781 13.6719 55.5781 13.6719 55.4688 13.7813C55.4688 13.8906 55.3594 13.8906 55.3594 14C55.1406 14.1094 54.9219 14.2188 54.5938 14.2188C54.4844 14.2188 54.4844 14.2188 54.375 14.2188C54.2656 14.2188 54.2656 14.2188 54.1563 14.1094C54.0469 14.1094 54.0469 14 53.9375 14L53.8281 13.8906C53.8281 13.7813 53.7188 13.7813 53.7188 13.6719C53.7188 13.6719 53.6094 13.5625 53.6094 13.4531C53.6094 13.3438 53.6094 13.3438 53.5 13.2344C53.5 13.125 53.5 13.125 53.5 13.0156C53.5 12.9063 53.5 13.0156 53.5 12.9063ZM46.9375 14.2188H45.8438V15.3125C45.8438 15.9688 45.4063 16.4063 44.75 16.4063C44.0938 16.4063 43.6563 15.9688 43.6563 15.3125V14.2188H42.5625C41.9063 14.2188 41.4688 13.7813 41.4688 13.125C41.4688 12.4688 41.9063 12.0313 42.5625 12.0313H43.6563V10.9375C43.6563 10.2813 44.0938 9.84376 44.75 9.84376C45.4063 9.84376 45.8438 10.2813 45.8438 10.9375V12.0313H46.9375C47.5938 12.0313 48.0313 12.4688 48.0313 13.125C48.0313 13.7813 47.5938 14.2188 46.9375 14.2188Z" fill="white"/>
</svg>
