<svg width="107" height="47" viewBox="0 0 107 47" fill="none" xmlns="http://www.w3.org/2000/svg">
<g clip-path="url(#clip0_52_2113)">
<path fill-rule="evenodd" clip-rule="evenodd" d="M42.9408 29.7639C37.737 29.7639 33.5243 25.5237 33.5243 20.3199V8.39778C33.5243 8.09491 33.7446 7.84711 34.075 7.84711H51.8342C52.1371 7.84711 52.3849 8.09491 52.3849 8.39778V20.3199C52.3849 25.5237 48.1447 29.7639 42.9408 29.7639ZM46.3825 24.6427C46.3275 24.6427 46.2724 24.6151 46.1898 24.6151L42.9408 23.4862L39.6919 24.6151C39.5267 24.6702 39.3339 24.6427 39.1963 24.5325C39.031 24.4224 38.9484 24.2572 38.9484 24.0644L39.031 20.6227L36.9385 17.8694C36.8284 17.7317 36.8008 17.539 36.8559 17.3738C36.911 17.2086 37.0486 17.0709 37.2414 17.0158L40.5179 16.0246L42.5003 13.1886C42.693 12.9133 43.1886 12.9133 43.4089 13.1886L45.3638 16.0246L48.6678 17.0158C48.833 17.0709 48.9707 17.2086 49.0258 17.3738C49.0808 17.539 49.0533 17.7317 48.9432 17.8694L46.8781 20.6227L46.9332 24.0644C46.9332 24.2572 46.8506 24.4224 46.7129 24.5325C46.6028 24.5876 46.4927 24.6427 46.3825 24.6427ZM38.3152 17.8418L40.0223 20.1271C40.0773 20.2097 40.1324 20.3474 40.1324 20.4575L40.0773 23.2935L42.7756 22.3849C42.8858 22.3298 42.9959 22.3298 43.1336 22.3849L45.8319 23.2935L45.7768 20.4575C45.7768 20.3474 45.8043 20.2097 45.8869 20.1271L47.594 17.8418L44.8682 17.0158C44.7581 16.9883 44.6479 16.9057 44.5653 16.7956L42.9408 14.4552L41.3163 16.7956C41.2337 16.9057 41.1511 16.9883 41.0135 17.0158L38.3152 17.8418Z" fill="#FF9901"/>
<path fill-rule="evenodd" clip-rule="evenodd" d="M32.6983 21.8618C31.1289 21.2836 30 19.7692 30 18.007V12.3076C30 12.0047 30.2478 11.7569 30.5507 11.7569H32.5882V20.3199C32.5882 20.843 32.6432 21.3662 32.6983 21.8618Z" fill="white"/>
<path fill-rule="evenodd" clip-rule="evenodd" d="M53.2935 11.7569H55.331C55.6339 11.7569 55.8817 12.0047 55.8817 12.3076V18.007C55.8817 19.7692 54.7528 21.3111 53.1834 21.8893C53.266 21.3662 53.2935 20.843 53.2935 20.3199V11.7569Z" fill="white"/>
<path fill-rule="evenodd" clip-rule="evenodd" d="M40.9033 31.3058V30.4798C41.5641 30.5899 42.2525 30.6725 42.9408 30.6725C43.6292 30.6725 44.3175 30.5899 44.9783 30.4798V31.3058H40.9033Z" fill="white"/>
<path fill-rule="evenodd" clip-rule="evenodd" d="M37.9848 34.2244C37.9848 33.123 38.8658 32.2144 39.9947 32.2144H45.9145C47.0158 32.2144 47.9244 33.123 47.9244 34.2244H37.9848Z" fill="white"/>
<path fill-rule="evenodd" clip-rule="evenodd" d="M50.43 39.1529H35.4792C35.1763 39.1529 34.9285 38.9051 34.9285 38.6022V37.143C34.9285 36.0416 35.8371 35.133 36.9385 35.133H48.9707C50.0721 35.133 50.9807 36.0416 50.9807 37.143V38.6022C50.9807 38.9051 50.7329 39.1529 50.43 39.1529Z" fill="white"/>
<path fill-rule="evenodd" clip-rule="evenodd" d="M66.2894 23.6514C62.9028 23.6514 60.1494 20.898 60.1494 17.5114C60.1494 14.1523 62.9028 11.3989 66.2894 11.3989C69.6485 11.3989 72.4019 14.1523 72.4019 17.5114C72.4019 20.898 69.6485 23.6514 66.2894 23.6514ZM69.5108 16.8781C68.437 16.8781 67.9414 16.7405 67.4458 16.5753C67.3081 16.5477 67.1705 16.5202 67.0328 16.4651C65.9865 16.2173 65.4083 15.1435 65.2706 14.8682C64.4722 13.8494 62.3796 14.8682 61.8565 15.1435C61.471 15.8594 61.2507 16.6579 61.2507 17.5114C61.2507 20.2923 63.5085 22.5501 66.2894 22.5501C69.0428 22.5501 71.3005 20.2923 71.3005 17.5114C71.3005 17.2636 71.273 17.0433 71.2455 16.7955C70.5296 16.8506 69.9789 16.8781 69.5108 16.8781Z" fill="white"/>
<path fill-rule="evenodd" clip-rule="evenodd" d="M63.0955 25.7991V23.8167C64.0592 24.2847 65.133 24.5601 66.2894 24.5601C67.4183 24.5601 68.4921 24.2847 69.4558 23.8167V25.7991H63.0955Z" fill="white"/>
<path fill-rule="evenodd" clip-rule="evenodd" d="M76.4493 38.2719H72.512V34.1143C72.512 33.8114 72.2642 33.5636 71.9613 33.5636C71.6585 33.5636 71.4107 33.8114 71.4107 34.1143V38.2719H61.1406V34.1143C61.1406 33.8114 60.8928 33.5636 60.5899 33.5636C60.2871 33.5636 60.0393 33.8114 60.0393 34.1143V38.2719H56.1295C55.8266 38.2719 55.5788 38.024 55.5788 37.7212V32.3796C55.5788 29.2408 58.1119 26.7077 61.2232 26.7077H71.3281C74.4394 26.7077 77 29.2408 77 32.3796V37.7212C77 38.024 76.7522 38.2719 76.4493 38.2719Z" fill="white"/>
</g>
<defs>
<clipPath id="clip0_52_2113">
<rect width="47" height="47" fill="white" transform="translate(30)"/>
</clipPath>
</defs>
</svg>
