<svg width="30" height="30" viewBox="0 0 30 30" fill="none" xmlns="http://www.w3.org/2000/svg">
<path d="M25.4507 14.4734C24.2771 14.4734 23.2177 13.6566 22.9593 12.4636C22.8152 11.798 22.9382 11.116 23.3074 10.5429C23.6765 9.96989 24.2454 9.57497 24.9111 9.43082C26.0038 9.19411 26.7005 8.11188 26.4638 7.01852C26.2265 5.92575 25.1443 5.22907 24.0515 5.46637C23.5218 5.58122 23.0689 5.89528 22.7759 6.35114C22.4829 6.807 22.3845 7.34899 22.4994 7.87868C22.5849 8.27418 22.3341 8.66383 21.9386 8.74996C21.5431 8.83551 21.1535 8.58473 21.0673 8.18922C20.8693 7.2775 21.0386 6.34293 21.5437 5.55836C22.0488 4.77379 22.8292 4.23297 23.741 4.03493C24.6527 3.83688 25.5872 4.00621 26.3718 4.51129C27.1564 5.01637 27.6972 5.79625 27.8953 6.70856C28.3036 8.59118 27.1042 10.4545 25.2216 10.8629C24.9386 10.9244 24.696 11.0925 24.539 11.3363C24.382 11.58 24.3298 11.8701 24.3908 12.1537C24.5179 12.7384 25.0962 13.1111 25.681 12.9839C26.0759 12.8984 26.4661 13.1492 26.5517 13.5447C26.6372 13.9402 26.3865 14.3298 25.991 14.416C25.8099 14.4552 25.6283 14.474 25.4501 14.474L25.4507 14.4734Z" fill="url(#paint0_linear_52_2033)"/>
<path d="M3.63978 14.4734C3.46107 14.4734 3.2806 14.4547 3.09896 14.4154C2.70346 14.3299 2.45267 13.9396 2.53822 13.5441C2.62377 13.1486 3.01342 12.8978 3.40892 12.9834C3.99369 13.1105 4.5726 12.7379 4.69916 12.1531C4.76068 11.8701 4.70795 11.5795 4.55092 11.3357C4.39388 11.092 4.15189 10.9238 3.8683 10.8623C1.98627 10.4539 0.786854 8.5906 1.19467 6.70798C1.39213 5.79626 1.93353 5.01579 2.7181 4.51071C3.50267 4.00564 4.43666 3.8363 5.34896 4.03435C6.26068 4.23181 7.04115 4.77321 7.54623 5.55778C8.05131 6.34235 8.22006 7.27692 8.02259 8.18864C7.93705 8.58415 7.5474 8.83493 7.15131 8.74939C6.7558 8.66384 6.50502 8.2736 6.59056 7.8781C6.70541 7.34841 6.60697 6.80642 6.314 6.35056C6.02103 5.89528 5.56752 5.58064 5.03842 5.46579C3.94564 5.22849 2.86342 5.92517 2.62611 7.01794C2.38939 8.11071 3.08549 9.19294 4.17885 9.43024C4.84447 9.57439 5.414 9.96931 5.78256 10.5424C6.15111 11.1154 6.27474 11.7974 6.1306 12.4631C5.87221 13.656 4.81283 14.4728 3.6392 14.4728L3.63978 14.4734Z" fill="url(#paint1_linear_52_2033)"/>
<path d="M14.5454 25.5798C16.064 25.5798 17.2952 23.7212 17.2952 21.4284C17.2952 19.1357 16.064 17.2771 14.5454 17.2771C13.0267 17.2771 11.7955 19.1357 11.7955 21.4284C11.7955 23.7212 13.0267 25.5798 14.5454 25.5798Z" fill="url(#paint2_linear_52_2033)"/>
<path d="M17.0816 22.3061H12.0097C10.5261 22.3061 9.31907 23.5132 9.31907 24.9967V25.5932C9.31907 25.9975 9.64719 26.3257 10.0515 26.3257H19.0392C19.4435 26.3257 19.7716 25.9975 19.7716 25.5932V24.9967C19.7716 23.5132 18.5646 22.3061 17.081 22.3061H17.0816Z" fill="url(#paint3_linear_52_2033)"/>
<path d="M22.3722 2.58939C21.9011 2.07142 21.2296 1.77435 20.5294 1.77435H8.56106C7.86086 1.77435 7.18938 2.07142 6.71828 2.58939C6.24719 3.10736 6.01516 3.80463 6.08195 4.50131L6.95735 13.6542C7.1384 15.5456 8.01203 17.2911 9.41828 18.5691C10.8245 19.847 12.645 20.5507 14.5452 20.5507C16.4454 20.5507 18.2659 19.847 19.6722 18.5691C21.0784 17.2911 21.9521 15.5456 22.1331 13.6542L23.0085 4.50131C23.0753 3.80404 22.8433 3.10736 22.3722 2.58939Z" fill="url(#paint4_linear_52_2033)"/>
<path d="M19.3668 24.8603H9.72461C8.6166 24.8603 7.71484 25.7615 7.71484 26.8701C7.71484 27.9787 8.61602 28.8798 9.72461 28.8798H19.3668C20.4748 28.8798 21.3766 27.9787 21.3766 26.8701C21.3766 25.7615 20.4754 24.8603 19.3668 24.8603Z" fill="url(#paint5_linear_52_2033)"/>
<path d="M17.6349 10.0531L18.573 8.464C18.7072 8.23665 18.7089 7.95423 18.5765 7.72571C18.4441 7.4972 18.1997 7.35482 17.9349 7.3595L16.0898 7.37767L15.1827 5.77103C15.0527 5.54075 14.8089 5.39896 14.5447 5.39896C14.2804 5.39896 14.0367 5.54134 13.9066 5.77103L12.9995 7.37767L11.1544 7.3595C11.1544 7.3595 11.1497 7.3595 11.1474 7.3595C10.8861 7.3595 10.6441 7.49896 10.5128 7.72571C10.381 7.95423 10.3822 8.23665 10.5163 8.464L11.4544 10.0531L10.5163 11.6421C10.3822 11.8695 10.3804 12.1519 10.5128 12.3804C10.6447 12.6089 10.8884 12.7501 11.1544 12.7466L12.9995 12.7284L13.9066 14.3351C14.0367 14.5654 14.2804 14.7072 14.5447 14.7072C14.8089 14.7072 15.0527 14.5648 15.1827 14.3351L16.0898 12.7284L17.9349 12.7466C17.9349 12.7466 17.9396 12.7466 17.9419 12.7466C18.2033 12.7466 18.4452 12.6072 18.5765 12.3804C18.7083 12.1519 18.7072 11.8695 18.573 11.6421L17.6349 10.0531Z" fill="url(#paint6_linear_52_2033)"/>
<defs>
<linearGradient id="paint0_linear_52_2033" x1="24.4804" y1="4.77145" x2="24.4804" y2="11.2847" gradientUnits="userSpaceOnUse">
<stop stop-color="#FF9500"/>
<stop offset="1" stop-color="#FFCC1E"/>
</linearGradient>
<linearGradient id="paint1_linear_52_2033" x1="4.6101" y1="4.77146" x2="4.6101" y2="11.2847" gradientUnits="userSpaceOnUse">
<stop stop-color="#FF9500"/>
<stop offset="1" stop-color="#FFCC1E"/>
</linearGradient>
<linearGradient id="paint2_linear_52_2033" x1="14.5454" y1="20.287" x2="14.5454" y2="23.1862" gradientUnits="userSpaceOnUse">
<stop stop-color="#FF9500"/>
<stop offset="1" stop-color="#FFCC1E"/>
</linearGradient>
<linearGradient id="paint3_linear_52_2033" x1="14.5456" y1="25.0061" x2="14.5456" y2="22.8716" gradientUnits="userSpaceOnUse">
<stop stop-color="#FF9500"/>
<stop offset="1" stop-color="#FFCC1E"/>
</linearGradient>
<linearGradient id="paint4_linear_52_2033" x1="14.5452" y1="20.5138" x2="14.5452" y2="2.84427" gradientUnits="userSpaceOnUse">
<stop stop-color="#FFBD00"/>
<stop offset="1" stop-color="#FFF065"/>
</linearGradient>
<linearGradient id="paint5_linear_52_2033" x1="14.5457" y1="28.7954" x2="14.5457" y2="25.7802" gradientUnits="userSpaceOnUse">
<stop stop-color="#333333"/>
<stop offset="1" stop-color="#666666"/>
</linearGradient>
<linearGradient id="paint6_linear_52_2033" x1="14.5452" y1="14.5677" x2="14.5452" y2="6.7513" gradientUnits="userSpaceOnUse">
<stop stop-color="#FF9500"/>
<stop offset="1" stop-color="#FFCC1E"/>
</linearGradient>
</defs>
</svg>
