<svg width="107" height="29" viewBox="0 0 107 29" fill="none" xmlns="http://www.w3.org/2000/svg">
<g clip-path="url(#paint0_diamond_52_2072_clip_path)" data-figma-skip-parse="true"><g transform="matrix(0 0.0145 0.0135 0 53.5 14.5)"><rect x="0" y="0" width="1068.97" height="1074.07" fill="url(#paint0_diamond_52_2072)" opacity="1" shape-rendering="crispEdges"/><rect x="0" y="0" width="1068.97" height="1074.07" transform="scale(1 -1)" fill="url(#paint0_diamond_52_2072)" opacity="1" shape-rendering="crispEdges"/><rect x="0" y="0" width="1068.97" height="1074.07" transform="scale(-1 1)" fill="url(#paint0_diamond_52_2072)" opacity="1" shape-rendering="crispEdges"/><rect x="0" y="0" width="1068.97" height="1074.07" transform="scale(-1)" fill="url(#paint0_diamond_52_2072)" opacity="1" shape-rendering="crispEdges"/></g></g><path d="M42.8351 1.90735e-06H54.2875C55.1988 1.90735e-06 56.1012 0.161592 56.9518 0.474039C58.4934 1.04023 61.5602 1.83133 65.5109 1.15592C66.286 1.02337 67 1.5855 67 2.33819V6.80363C67 7.24684 66.746 7.65419 66.3371 7.8632C63.8147 9.15283 54.9315 14.6189 54.4293 27.8458C54.4044 28.5004 53.831 29.0134 53.146 28.9997L43.2863 28.8027C42.5013 28.787 41.9215 28.0954 42.0795 27.3603C42.9301 23.4038 46.0798 12.3218 55.082 9.51682C55.597 9.35633 55.9428 8.89379 55.9428 8.37598C55.9428 7.71165 55.3794 7.17313 54.6845 7.17313H44.4165C43.9494 7.17313 43.5207 7.42054 43.3031 7.81564L42.6945 8.9207C42.4769 9.3158 42.0482 9.56314 41.5811 9.56314H41.2587C40.4595 9.56314 39.8628 8.86014 40.0275 8.11247L41.6038 0.955029C41.7264 0.398476 42.24 1.90735e-06 42.8351 1.90735e-06Z" data-figma-gradient-fill="{&#34;type&#34;:&#34;GRADIENT_DIAMOND&#34;,&#34;stops&#34;:[{&#34;color&#34;:{&#34;r&#34;:1.0,&#34;g&#34;:1.0,&#34;b&#34;:1.0,&#34;a&#34;:1.0},&#34;position&#34;:0.0},{&#34;color&#34;:{&#34;r&#34;:1.0,&#34;g&#34;:0.60000002384185791,&#34;b&#34;:0.0039215688593685627,&#34;a&#34;:1.0},&#34;position&#34;:1.0}],&#34;stopsVar&#34;:[{&#34;color&#34;:{&#34;r&#34;:1.0,&#34;g&#34;:1.0,&#34;b&#34;:1.0,&#34;a&#34;:1.0},&#34;position&#34;:0.0},{&#34;color&#34;:{&#34;r&#34;:1.0,&#34;g&#34;:0.60000002384185791,&#34;b&#34;:0.0039215688593685627,&#34;a&#34;:1.0},&#34;position&#34;:1.0}],&#34;transform&#34;:{&#34;m00&#34;:1.6532732112853072e-15,&#34;m01&#34;:27.0,&#34;m02&#34;:40.0,&#34;m10&#34;:29.0,&#34;m11&#34;:-1.7757379759531628e-15,&#34;m12&#34;:0.0},&#34;opacity&#34;:1.0,&#34;blendMode&#34;:&#34;NORMAL&#34;,&#34;visible&#34;:true}"/>
<defs>
<clipPath id="paint0_diamond_52_2072_clip_path"><path d="M42.8351 1.90735e-06H54.2875C55.1988 1.90735e-06 56.1012 0.161592 56.9518 0.474039C58.4934 1.04023 61.5602 1.83133 65.5109 1.15592C66.286 1.02337 67 1.5855 67 2.33819V6.80363C67 7.24684 66.746 7.65419 66.3371 7.8632C63.8147 9.15283 54.9315 14.6189 54.4293 27.8458C54.4044 28.5004 53.831 29.0134 53.146 28.9997L43.2863 28.8027C42.5013 28.787 41.9215 28.0954 42.0795 27.3603C42.9301 23.4038 46.0798 12.3218 55.082 9.51682C55.597 9.35633 55.9428 8.89379 55.9428 8.37598C55.9428 7.71165 55.3794 7.17313 54.6845 7.17313H44.4165C43.9494 7.17313 43.5207 7.42054 43.3031 7.81564L42.6945 8.9207C42.4769 9.3158 42.0482 9.56314 41.5811 9.56314H41.2587C40.4595 9.56314 39.8628 8.86014 40.0275 8.11247L41.6038 0.955029C41.7264 0.398476 42.24 1.90735e-06 42.8351 1.90735e-06Z"/></clipPath><linearGradient id="paint0_diamond_52_2072" x1="0" y1="0" x2="500" y2="500" gradientUnits="userSpaceOnUse">
<stop stop-color="white"/>
<stop offset="1" stop-color="#FF9901"/>
</linearGradient>
</defs>
</svg>
