<svg width="107" height="40" viewBox="0 0 107 40" fill="none" xmlns="http://www.w3.org/2000/svg">
<g clip-path="url(#clip0_52_2079)">
<path d="M59.7874 29.0766C58.3365 28.717 57.0625 28.4122 56.0505 28.9974L60.8054 33.7523C61.8832 32.5365 62.6379 31.069 63 29.4851C61.9135 29.5375 60.8262 29.3992 59.7874 29.0766Z" fill="white"/>
<path d="M55.2646 33.5939C55.5921 34.6317 55.7324 35.7195 55.6791 36.8065C57.2631 36.4444 58.7305 35.6897 59.9464 34.6119L55.1914 29.857C54.6062 30.8689 54.911 32.143 55.2646 33.5939Z" fill="white"/>
<path d="M54.3079 28.973L53.5032 28.1683L47.0597 34.6119C48.8356 36.1891 51.128 37.0609 53.5032 37.0625C53.8046 37.0616 54.1057 37.0453 54.4054 37.0137C54.631 36.1115 54.3627 35.0264 54.0823 33.8804C53.6861 32.2649 53.2472 30.4543 54.3079 28.973Z" fill="white"/>
<path d="M51.8382 26.5041C51.1878 26.9555 50.4106 27.1882 49.6192 27.1685C48.7089 27.1291 47.8064 26.9817 46.9308 26.7296C45.7848 26.4492 44.6997 26.181 43.7975 26.4065C43.7659 26.7062 43.7496 27.0074 43.7487 27.3088C43.7503 29.684 44.6221 31.9763 46.1994 33.7523L52.6429 27.3088L51.8382 26.5041Z" fill="white"/>
<path d="M44.0052 25.1325C45.0917 25.0801 46.179 25.2184 47.2178 25.541C48.6687 25.9006 49.9427 26.2054 50.9547 25.6202L46.1998 20.8653C45.122 22.0812 44.3673 23.5486 44.0052 25.1325Z" fill="white"/>
<path d="M47.0597 20.0057L51.8146 24.7607C52.3998 23.7487 52.095 22.4746 51.7414 21.0238C51.414 19.9859 51.2736 18.8981 51.3269 17.8112C49.743 18.1732 48.2755 18.9279 47.0597 20.0057Z" fill="white"/>
<path d="M52.9237 20.7373C53.32 22.3528 53.7588 24.1633 52.6981 25.6446L53.5028 26.4493L59.9464 20.0058C58.1704 18.4285 55.8781 17.5567 53.5028 17.5552C53.2015 17.5561 52.9003 17.5723 52.6006 17.6039C52.3751 18.5062 52.6433 19.5913 52.9237 20.7373Z" fill="white"/>
<path d="M54.362 27.3089L55.1667 28.1136C56.648 27.0528 58.4586 27.4918 60.074 27.888C61.2201 28.1684 62.3052 28.4366 63.2074 28.2111C63.239 27.9114 63.2552 27.6103 63.2561 27.3089C63.2546 24.9337 62.3828 22.6413 60.8055 20.8654L54.362 27.3089Z" fill="white"/>
<path d="M53.9478 16.3481C53.9301 15.9056 53.8201 15.4716 53.6248 15.0741C53.4114 14.6595 53.4662 15.1472 53.3687 15.3606C53.2668 15.7171 53.1038 16.0533 52.8871 16.3542C53.0883 16.342 53.2955 16.3359 53.5028 16.3359C53.6552 16.336 53.8015 16.336 53.9478 16.3481Z" fill="white"/>
<path d="M59.6595 8.35013C58.9706 7.67348 57.5564 9.29505 57.5685 11.9529C57.0641 11.5179 56.6628 10.9759 56.3939 10.3665C56.125 9.75698 55.9952 9.09527 56.014 8.42938C55.995 7.35222 55.7147 6.29579 55.1972 5.3509C54.9533 4.68644 51.7956 1.54697 51.6858 3.65622C51.8939 4.59418 51.8371 5.57153 51.5217 6.47905C51.2063 7.38656 50.6447 8.18848 49.8997 8.79518C48.5061 10.1023 47.5088 11.7755 47.0224 13.6233C46.5762 12.9537 46.0074 12.3745 45.346 11.9164C44.334 11.2214 43.2977 14.2756 43.0904 14.9583C42.5154 17.2883 42.8374 19.7494 43.9927 21.8529C44.7423 20.5441 45.7541 19.404 46.9645 18.504C48.175 17.604 49.5581 16.9635 51.0275 16.6225C51.8017 15.7691 52.5759 15.0498 52.2345 13.7147C52.3137 11.9956 54.3681 13.7879 54.6668 14.4523C55.0062 15.0678 55.1785 15.7613 55.1667 16.464C56.9019 16.7319 58.5476 17.412 59.9657 18.4473C61.3839 19.4825 62.5331 20.8427 63.3171 22.4138C65.3349 17.8965 63.8414 12.1602 59.6595 8.35013Z" fill="#FF9901"/>
</g>
<defs>
<clipPath id="clip0_52_2079">
<rect width="106" height="39" fill="white" transform="translate(0.5 0.5)"/>
</clipPath>
</defs>
</svg>
