<svg width="24" height="24" viewBox="0 0 24 24" fill="none" xmlns="http://www.w3.org/2000/svg">
<g clip-path="url(#clip0_52_2142)">
<path fill-rule="evenodd" clip-rule="evenodd" d="M1.65534 11.1683L1.90988 11.1689V20.5954C1.90988 22.0851 3.12094 23.2969 4.61161 23.2969H11.2503V11.1683H1.65534ZM12.7497 11.1683V23.2969H19.3884C20.8769 23.2969 22.0901 22.0851 22.0901 20.5954V11.1689L22.3424 11.1683H12.7497Z" fill="white"/>
<path fill-rule="evenodd" clip-rule="evenodd" d="M12.7497 4.02329V9.66887H23.0655V6.72465C23.0655 5.23501 21.8523 4.02334 20.3638 4.02334H13.8353L15.8456 2.05084C16.1406 1.76064 16.145 1.28579 15.8544 0.990107C15.5637 0.694607 15.0903 0.689966 14.7931 0.980216L12.0099 3.71251L9.27741 0.92781C8.98674 0.63231 8.51114 0.627716 8.21611 0.917872C7.92103 1.20808 7.91663 1.68278 8.2051 1.97856L10.2132 4.02334H3.63614C2.14547 4.02334 0.934454 5.23506 0.934454 6.72465V9.66887H11.2502V4.02329H12.7497Z" fill="#FFB229"/>
</g>
<defs>
<clipPath id="clip0_52_2142">
<rect width="24" height="24" fill="white"/>
</clipPath>
</defs>
</svg>
