<svg width="38" height="36" viewBox="0 0 38 36" fill="none" xmlns="http://www.w3.org/2000/svg">
<path d="M12.9201 15.8698C14.2321 17.1524 16.3049 16.5231 16.6858 15.687C16.8442 15.3928 16.7577 15.049 16.5658 14.8586C16.041 14.3231 15.5176 14.908 15.4001 14.9786C15.0115 15.2529 14.48 15.2529 14.0801 14.9786C13.9938 14.9267 13.4381 14.3234 12.9086 14.8642C12.6654 15.1079 12.613 15.5323 12.9201 15.8698Z" fill="white"/>
<path d="M11.9943 13.2525C12.736 13.2525 13.3372 12.6513 13.3372 11.9096C13.3372 11.168 12.736 10.5668 11.9943 10.5668C11.2527 10.5668 10.6515 11.168 10.6515 11.9096C10.6515 12.6513 11.2527 13.2525 11.9943 13.2525Z" fill="white"/>
<path d="M17.5487 13.2528C18.2915 13.2528 18.8915 12.6471 18.8915 11.9099C18.8915 11.1701 18.2789 10.567 17.5487 10.567C16.7826 10.567 16.2058 11.191 16.2058 11.9099C16.2058 12.6471 16.8058 13.2528 17.5487 13.2528Z" fill="white"/>
<path d="M36.3372 23.0014H32.4915C32.9441 22.3344 32.8188 21.7193 32.8401 21.5327C32.8401 20.4356 31.9487 19.5441 30.8515 19.5441H30.5087C29.9544 19.5441 29.4458 19.7727 29.0858 20.1443C28.7315 19.7727 28.2229 19.5441 27.6687 19.5441H27.3258C26.2287 19.5441 25.3372 20.4356 25.3372 21.5327C25.3503 21.7526 25.2837 22.1488 25.4858 22.6242C22.481 20.3284 19.5424 20.9985 18.6001 20.8871V20.5556C20.7871 19.3285 22.1891 17.2846 22.6001 15.0243C26.2184 14.7938 27.1692 9.83874 23.823 8.29832V5.98415C24.1601 5.2241 24.263 4.33292 24.0744 3.4356C23.6572 1.50982 21.8572 0.190063 19.8858 0.190063H6.9029C6.02867 0.190063 5.32003 0.89849 5.32003 1.77265V4.32706C5.32003 5.10219 5.58305 5.67717 5.61719 6.80697L5.66295 8.29832C2.31807 9.83081 3.26318 14.7994 6.89146 15.0243C7.35584 17.5178 9.01336 19.5335 10.8744 20.5386V20.8871H9.12584C4.45152 20.8871 0.657227 24.6756 0.657227 29.3555V34.6298C0.657227 35.2757 1.1829 35.8014 1.8344 35.8014C29.1737 35.7655 27.7097 35.8933 28.1316 35.6984H34.1829C35.4058 35.6984 36.4001 34.7043 36.4001 33.4814V26.1901C36.9258 26.1613 37.3429 25.7269 37.3429 25.1901V24.0126C37.3429 23.4529 36.8915 23.0014 36.3372 23.0014ZM5.74296 34.3728H2.0858V32.1499H5.74296V34.3728ZM35.2573 33.4814C35.2573 34.0698 34.7772 34.5556 34.1829 34.5556H30.4629V31.7328H35.2573V33.4814ZM28.5144 21.5327V22.7269H27.3258C26.8629 22.7269 26.4801 22.3441 26.4801 21.8756C26.4985 21.8184 26.324 20.687 27.3258 20.687H27.6687C28.1372 20.687 28.5144 21.0698 28.5144 21.5327ZM29.6572 21.5327C29.6572 21.0698 30.04 20.687 30.5087 20.687H30.8515C31.8529 20.687 31.6788 21.8184 31.6973 21.8756C31.6973 22.3441 31.3144 22.7269 30.8515 22.7269H29.6572V21.5327ZM35.2573 28.9727H30.4629V26.247C30.5258 26.2414 30.5829 26.2241 30.6401 26.1956H35.2573V28.9727ZM27.7086 34.5556H23.9944C23.4001 34.5556 22.9143 34.0698 22.9143 33.4814V31.7328H27.7086V34.5556ZM29.823 25.11H28.3486C28.3486 25.0335 28.3486 24.034 28.3486 24.0927H29.823C29.823 24.2227 29.823 25.1687 29.823 25.11ZM27.5315 26.1956C27.5887 26.2241 27.6458 26.2414 27.7086 26.247V28.9727C25.9048 28.9727 24.6035 28.9727 22.9143 28.9727C22.9143 28.6541 22.9143 26.1251 22.9143 26.1956C23.025 26.1956 27.7711 26.1956 27.5315 26.1956ZM8.20578 14.2012C8.20006 14.1901 8.20006 14.1842 8.20578 14.1783C8.15608 13.5666 8.18654 13.484 8.17718 11.3042C9.16646 10.5128 9.33551 9.88331 9.41727 8.48694V8.48136H20.0801C20.1232 9.1608 20.0174 10.3403 21.3144 11.2983C21.3055 13.3864 21.3377 13.6603 21.2801 14.1783C21.2801 14.1842 21.2744 14.1901 21.2801 14.1956C20.9429 17.6626 18.0001 20.1156 14.743 20.1156C11.3449 20.1156 8.57609 17.5319 8.20578 14.2012ZM12.3029 22.7841V21.1613C13.8908 21.675 15.6131 21.6692 17.1715 21.1613V22.7841C17.1715 24.127 16.0801 25.2185 14.7372 25.2185C13.4016 25.2185 12.3029 24.1291 12.3029 22.7841ZM14.3486 34.3728V26.6242C14.4801 26.6412 14.6057 26.6471 14.7372 26.6471C16.8687 26.6471 18.6001 24.9155 18.6001 22.7841V22.31C19.7877 22.3855 21.381 22.0345 23.3887 23.0014H21.8401C21.2858 23.0014 20.8287 23.4529 20.8287 24.0126V25.1901C20.8287 25.7269 21.2458 26.1555 21.7715 26.1901V33.4814C21.7715 33.7955 21.8401 34.0985 21.9601 34.3728H14.3486Z" fill="white"/>
</svg>
