<svg width="18" height="18" viewBox="0 0 18 18" fill="none" xmlns="http://www.w3.org/2000/svg">
<path d="M0.486648 15.1637C-0.162216 15.8126 -0.162216 16.8644 0.486648 17.5133C1.13551 18.1622 2.18755 18.1622 2.83642 17.5133L0.486648 15.1637ZM7.54405 12.8056C8.19293 12.1567 8.19293 11.1049 7.54405 10.4559C6.89516 9.80705 5.8433 9.80705 5.19434 10.4559L7.54405 12.8056ZM14.6769 7.20002C14.6769 9.3412 12.9412 11.077 10.8 11.077V14.4C14.7764 14.4 18 11.1764 18 7.20002H14.6769ZM10.8 11.077C8.65883 11.077 6.92307 9.3412 6.92307 7.20002H3.6C3.6 11.1764 6.8236 14.4 10.8 14.4V11.077ZM6.92307 7.20002C6.92307 5.05885 8.65883 3.32309 10.8 3.32309V0C6.8236 0 3.6 3.22355 3.6 7.20002H6.92307ZM10.8 3.32309C12.9412 3.32309 14.6769 5.05885 14.6769 7.20002H18C18 3.22355 14.7764 0 10.8 0V3.32309ZM2.83642 17.5133L7.54405 12.8056L5.19434 10.4559L0.486648 15.1637L2.83642 17.5133Z" fill="white"/>
</svg>
