<svg width="25" height="26" viewBox="0 0 25 26" fill="none" xmlns="http://www.w3.org/2000/svg">
<g clip-path="url(#clip0_52_2149)">
<path d="M3.62796 11.3112L3.91974 13.4709H23.8133L24.1117 11.3112H3.62796Z" fill="#FF9901"/>
<path d="M4.1262 14.999L4.4382 17.3083C3.4479 17.6631 2.73735 18.6108 2.73735 19.7217C2.73735 21.1348 3.88709 22.2846 5.30034 22.2846H6.70049C6.60029 22.5469 6.54492 22.8311 6.54492 23.1282C6.54492 24.436 7.60888 25.5 8.91669 25.5C10.2245 25.5 11.2885 24.436 11.2885 23.1282C11.2885 22.8312 11.2331 22.5469 11.1329 22.2846H17.3446C17.2444 22.5469 17.189 22.8311 17.189 23.1282C17.189 24.436 18.253 25.5 19.5608 25.5C20.8686 25.5 21.9326 24.436 21.9326 23.1282C21.9326 22.8312 21.8771 22.5469 21.777 22.2846H24.207C24.629 22.2846 24.9711 21.9425 24.9711 21.5205C24.9711 21.0985 24.629 20.7564 24.207 20.7564H5.30034C4.72972 20.7564 4.26551 20.2922 4.26551 19.7217C4.26551 19.151 4.72972 18.6868 5.30034 18.6868H21.0955C22.2341 18.6868 23.2103 17.8363 23.3661 16.7083L23.6022 14.999L4.1262 14.999Z" fill="white"/>
<path d="M24.3228 9.78303L24.7122 6.96383C24.7425 6.74499 24.6765 6.52382 24.5314 6.3573C24.3862 6.19078 24.1762 6.09517 23.9553 6.09517H4.46535L4.28441 4.75563C4.1484 3.74959 3.28031 2.99091 2.26515 2.99091H0.793167C0.37119 2.99091 0.0290852 3.33301 0.0290852 3.75499C0.0290852 4.17696 0.37119 4.51907 0.793167 4.51907H2.26509C2.51887 4.51907 2.73592 4.70877 2.7699 4.96025L3.42146 9.78303H24.3228Z" fill="#FF9901"/>
<path d="M13.4743 4.56693H19.8693V2.73619C19.8693 2.31421 19.5272 1.97211 19.1052 1.97211H13.4743V4.56693Z" fill="#FF9901"/>
<path d="M11.9461 4.56695L11.9461 1.26408C11.9461 0.842105 11.604 0.5 11.182 0.5H7.03363C6.61165 0.5 6.26955 0.842105 6.26955 1.26408V4.56695H11.9461Z" fill="#FF9901"/>
</g>
<defs>
<clipPath id="clip0_52_2149">
<rect width="25" height="25" fill="white" transform="translate(0 0.5)"/>
</clipPath>
</defs>
</svg>
