<svg width="25" height="26" viewBox="0 0 25 26" fill="none" xmlns="http://www.w3.org/2000/svg">
<g clip-path="url(#clip0_52_2166)">
<path d="M10.1559 10.6663L5.27266 5.78308C3.99248 7.27522 3.16504 9.16658 3.0064 11.2422H9.9168C9.97437 11.0395 10.0549 10.8466 10.1559 10.6663Z" fill="#FF9901"/>
<path d="M10.1559 13.2829C10.0549 13.1027 9.97437 12.9097 9.9168 12.707H3.0064C3.16504 14.7827 3.99248 16.674 5.27261 18.1662L10.1559 13.2829Z" fill="white"/>
<path d="M6.30845 19.202C7.80059 20.4822 9.69194 21.3096 11.7676 21.4682V14.5578C11.5649 14.5003 11.3719 14.4197 11.1917 14.3187L6.30845 19.202Z" fill="white"/>
<path d="M15.0832 11.2422H21.9936C21.835 9.16653 21.0075 7.27522 19.7274 5.78308L14.8441 10.6663C14.9451 10.8466 15.0256 11.0395 15.0832 11.2422Z" fill="#FF9901"/>
<path d="M14.8441 13.2829L19.7273 18.1662C21.0075 16.674 21.835 14.7827 21.9936 12.707H15.0832C15.0256 12.9097 14.9451 13.1027 14.8441 13.2829Z" fill="white"/>
<path d="M12.5 13.1953C13.1742 13.1953 13.7207 12.6488 13.7207 11.9746C13.7207 11.3004 13.1742 10.7539 12.5 10.7539C11.8258 10.7539 11.2793 11.3004 11.2793 11.9746C11.2793 12.6488 11.8258 13.1953 12.5 13.1953Z" fill="#FF9901"/>
<path d="M13.8083 14.3187C13.6281 14.4197 13.4351 14.5003 13.2324 14.5578V21.4682C15.3081 21.3096 17.1994 20.4822 18.6916 19.202L13.8083 14.3187Z" fill="white"/>
<path d="M11.7676 9.39145V5.93022C11.2044 5.73096 10.735 5.30654 10.487 4.73955L9.67412 2.88159C8.42241 3.27153 7.28067 3.91318 6.30845 4.74727L11.1917 9.63052C11.3719 9.52959 11.5649 9.44902 11.7676 9.39145Z" fill="#FF9901"/>
<path d="M13.2324 5.93018V9.39141C13.4351 9.44897 13.6281 9.52954 13.8083 9.63052L18.6916 4.74727C17.7194 3.91318 16.5776 3.27153 15.3259 2.88159L14.5131 4.73955C14.265 5.30649 13.7956 5.73091 13.2324 5.93018Z" fill="#FF9901"/>
<path d="M11.829 4.15239C12.085 4.73755 12.915 4.73755 13.171 4.15239L14.3201 1.52598C14.5318 1.04209 14.1772 0.5 13.6491 0.5H11.351C10.8228 0.5 10.4683 1.04209 10.68 1.52598L11.829 4.15239Z" fill="#FF9901"/>
<path d="M20.3125 24.0351H18.3277L17.2683 21.8739C16.8269 22.0876 16.3721 22.2709 15.906 22.4227L16.6964 24.0351H8.30361L9.09399 22.4228C8.62788 22.2709 8.17305 22.0876 7.73164 21.874L6.67227 24.0351H4.6875C4.28301 24.0351 3.95508 24.3631 3.95508 24.7676C3.95508 25.172 4.28301 25.5 4.6875 25.5H20.3125C20.717 25.5 21.0449 25.172 21.0449 24.7676C21.0449 24.3631 20.717 24.0351 20.3125 24.0351Z" fill="white"/>
</g>
<defs>
<clipPath id="clip0_52_2166">
<rect width="25" height="25" fill="white" transform="translate(0 0.5)"/>
</clipPath>
</defs>
</svg>
